<svg width="76" height="45" viewBox="0 0 76 45" fill="none" xmlns="http://www.w3.org/2000/svg">
<g clip-path="url(#clip0_4015_85)">
<path d="M21.7416 16.343C21.7222 17.0951 21.815 17.8458 22.0169 18.5705C22.2393 19.1903 22.507 19.7928 22.818 20.3731C22.9294 20.5448 22.9901 20.7443 22.9933 20.9488C22.9933 21.1991 22.8431 21.4496 22.5177 21.6996L20.941 22.7509C20.7508 22.8879 20.5246 22.9662 20.2904 22.9761C20.0053 22.9564 19.7377 22.8316 19.5396 22.6257C19.2022 22.2633 18.9004 21.8694 18.6383 21.4494C18.3881 21.0239 18.1376 20.5481 17.8624 19.9727C15.9103 22.2749 13.4575 23.426 10.5041 23.426C8.40107 23.426 6.72493 22.8251 5.49859 21.6234C4.27225 20.4216 3.64648 18.8208 3.64648 16.8186C3.64648 14.6912 4.39728 12.9643 5.92406 11.6629C7.45084 10.3614 9.47791 9.71061 12.0558 9.71061C12.9436 9.71786 13.8299 9.78478 14.7087 9.9109C15.6348 10.0361 16.5859 10.2362 17.5869 10.4615V8.63448C17.5869 6.73173 17.1863 5.40596 16.4106 4.62998C15.6095 3.85415 14.2582 3.47875 12.331 3.47875C11.4202 3.47871 10.5127 3.58793 9.62798 3.80407C8.70793 4.02327 7.80463 4.30763 6.92493 4.65502C6.64031 4.78236 6.3477 4.89103 6.04895 4.98034C5.91936 5.02307 5.78465 5.04833 5.64838 5.05545C5.29801 5.05545 5.12276 4.80524 5.12276 4.27962V3.05328C5.12276 2.6527 5.17283 2.35226 5.29801 2.1773C5.48687 1.94916 5.72711 1.76904 5.99903 1.65168C7.00287 1.15499 8.0612 0.777043 9.15258 0.525482C10.4279 0.198248 11.7404 0.0383903 13.0569 0.0499381C16.0358 0.0499381 18.2127 0.725628 19.6143 2.07715C20.9908 3.42868 21.6915 5.48093 21.6915 8.23404V16.343H21.7416ZM11.5804 20.1473C12.4584 20.1376 13.329 19.9854 14.1582 19.6967C15.0769 19.379 15.8965 18.8266 16.5358 18.0944C16.9393 17.6331 17.2305 17.0847 17.3868 16.4921C17.5587 15.7792 17.6427 15.048 17.637 14.3147V13.2646C16.8781 13.0799 16.1095 12.9378 15.3348 12.8391C14.5544 12.7403 13.7685 12.6903 12.9818 12.6896C11.305 12.6896 10.0786 13.015 9.25272 13.6911C8.42682 14.3672 8.02638 15.3178 8.02638 16.5692C8.02638 17.7455 8.32682 18.6215 8.95243 19.2222C9.5533 19.848 10.4291 20.1483 11.5804 20.1483V20.1473ZM31.6777 22.8503C31.2272 22.8503 30.9269 22.7752 30.7266 22.6001C30.5263 22.4499 30.3512 22.0994 30.201 21.624L24.3192 2.27744C24.2052 1.95359 24.1296 1.61748 24.094 1.27599C24.094 0.875416 24.2943 0.650234 24.6949 0.650234H27.1476C27.6231 0.650234 27.9487 0.725342 28.1237 0.900452C28.324 1.05067 28.4741 1.40118 28.6244 1.87658L32.8291 18.4449L36.7333 1.87701C36.8585 1.37628 37.0085 1.0511 37.2088 0.900881C37.4091 0.750664 37.7595 0.650663 38.2103 0.650663H40.2132C40.6887 0.650663 41.0143 0.725771 41.2146 0.900881C41.4149 1.0511 41.59 1.4016 41.6902 1.87701L45.6446 18.6457L49.973 1.87701C50.1232 1.37628 50.2983 1.0511 50.4737 0.900881C50.674 0.750664 50.9993 0.650663 51.4498 0.650663H53.7775C54.178 0.650663 54.4032 0.850952 54.4032 1.27642C54.3974 1.41108 54.3806 1.54505 54.3532 1.677C54.3139 1.89049 54.2553 2.09995 54.1779 2.30276L48.1462 21.6493C47.9961 22.1498 47.8209 22.4752 47.6206 22.6254C47.3376 22.8065 47.0049 22.8941 46.6695 22.8756H44.5169C44.0414 22.8756 43.7158 22.8005 43.5155 22.6254C43.3152 22.4503 43.1401 22.1247 43.04 21.624L39.1609 5.48093L35.3065 21.5989C35.1813 22.0996 35.0312 22.4248 34.831 22.6004C34.6307 22.7759 34.2803 22.8506 33.8295 22.8506L31.6777 22.8503ZM63.8384 23.526C62.5405 23.5274 61.2468 23.3762 59.9841 23.0755C58.7328 22.775 57.7566 22.4497 57.106 22.074C56.7054 21.8489 56.4303 21.5985 56.3302 21.373C56.2327 21.1521 56.1816 20.9135 56.1799 20.672V19.3965C56.1799 18.8708 56.3802 18.6206 56.7556 18.6206C56.9089 18.6211 57.061 18.6465 57.2061 18.6957C57.3563 18.7458 57.5815 18.8459 57.8319 18.9459C58.7159 19.3348 59.6388 19.6284 60.585 19.8219C61.5653 20.0209 62.563 20.1216 63.5633 20.1224C65.14 20.1224 66.3665 19.8471 67.2174 19.2965C67.6251 19.0505 67.9604 18.7009 68.189 18.2832C68.4177 17.8656 68.5317 17.3949 68.5193 16.9189C68.5281 16.5967 68.473 16.2759 68.357 15.9752C68.241 15.6745 68.0665 15.3998 67.8436 15.1669C67.3931 14.6914 66.5418 14.2656 65.3158 13.865L61.686 12.739C59.859 12.1634 58.5074 11.3125 57.6817 10.186C56.8759 9.14732 56.436 7.87148 56.4303 6.55691C56.41 5.58784 56.6429 4.63024 57.106 3.77875C57.5531 2.97356 58.1678 2.27371 58.9086 1.7265C59.6886 1.13595 60.5711 0.694584 61.5115 0.424622C62.536 0.129724 63.5983 -0.0133829 64.6643 -0.000134254C65.2249 -0.00419801 65.7851 0.0292583 66.3412 0.10001C66.9169 0.175119 67.4428 0.275264 67.968 0.375265C68.4687 0.500446 68.9441 0.625484 69.3946 0.775844C69.7598 0.888814 70.1121 1.03981 70.4458 1.22635C70.7405 1.37496 70.9973 1.58901 71.1966 1.85211C71.3594 2.09566 71.4384 2.38557 71.4218 2.67802V3.85429C71.4218 4.37991 71.2215 4.65545 70.8461 4.65545C70.6458 4.65545 70.3205 4.5553 69.895 4.35501C68.4684 3.70426 66.8666 3.37889 65.0897 3.37889C63.663 3.37889 62.5368 3.60407 61.761 4.0799C60.9852 4.55573 60.5847 5.28164 60.5847 6.3074C60.5779 6.63974 60.6412 6.96979 60.7706 7.27599C60.8999 7.58219 61.0925 7.85766 61.3355 8.0844C61.8363 8.55994 62.7622 9.03549 64.0886 9.46096L67.6426 10.5866C69.4452 11.1623 70.7461 11.9631 71.522 12.9892C72.2859 13.996 72.6912 15.2294 72.6732 16.4931C72.6861 17.4984 72.4633 18.4927 72.0225 19.3963C71.5784 20.2529 70.9553 21.0041 70.1955 21.5988C69.3692 22.242 68.4256 22.7182 67.4173 23.0008C66.2581 23.3574 65.0511 23.5346 63.8383 23.5264L63.8384 23.526Z" fill="#353535"/>
<path d="M68.5686 35.6892C60.3344 41.771 48.3711 44.9995 38.0847 44.9995C23.6686 45.0001 10.6791 39.6691 0.868524 30.8093C0.0926889 30.1083 0.793415 29.1575 1.71947 29.7077C12.3312 35.8646 25.4208 39.5934 38.9608 39.5934C48.096 39.5934 58.1321 37.6907 67.3674 33.7869C68.744 33.1611 69.9203 34.6882 68.5692 35.6897L68.5686 35.6892Z" fill="#353535"/>
<path d="M71.9986 31.7852C70.9473 30.4337 65.0408 31.1346 62.3628 31.4599C61.5616 31.56 61.4367 30.859 62.1625 30.3337C66.8677 27.0301 74.6013 27.981 75.5023 29.0823C76.4037 30.2085 75.2521 37.9421 70.8472 41.6463C70.1715 42.222 69.5207 41.9216 69.821 41.1708C70.8223 38.6929 73.0498 33.1117 71.9986 31.7852Z" fill="#353535"/>
</g>
<defs>
<clipPath id="clip0_4015_85">
<rect width="75.2514" height="45" fill="white" transform="translate(0.535156)"/>
</clipPath>
</defs>
</svg>
