<svg width="51" height="51" viewBox="0 0 51 51" fill="none" xmlns="http://www.w3.org/2000/svg">
<path d="M17.8194 3.90824H31.3808L17.3027 45.6202C17.158 46.0488 16.8826 46.4213 16.5151 46.6851C16.1476 46.949 15.7067 47.091 15.2543 47.091H4.70012C4.35736 47.0911 4.01952 47.0095 3.71455 46.8531C3.40957 46.6966 3.14623 46.4698 2.94631 46.1914C2.74638 45.913 2.61562 45.591 2.56484 45.252C2.51406 44.9131 2.54472 44.5669 2.65429 44.2421L15.7704 5.37907C15.9151 4.95027 16.1906 4.57765 16.5582 4.31369C16.9257 4.04973 17.3669 3.90826 17.8194 3.90824Z" fill="url(#paint0_linear_4015_187)"/>
<path d="M37.5251 31.8857H16.0199C15.8199 31.8855 15.6246 31.9455 15.4592 32.0579C15.2939 32.1703 15.1662 32.3299 15.0928 32.5159C15.0195 32.7019 15.0039 32.9057 15.048 33.1007C15.0921 33.2957 15.1939 33.4729 15.3402 33.6092L29.1589 46.5071C29.5612 46.8824 30.091 47.0911 30.6412 47.091H42.8183L37.5251 31.8857Z" fill="#353535"/>
<path d="M17.8186 3.90822C17.3611 3.90646 16.9151 4.05103 16.5456 4.3208C16.1761 4.59057 15.9026 4.97142 15.7649 5.4077L2.66963 44.2067C2.55269 44.5326 2.51598 44.8819 2.5626 45.2251C2.60922 45.5682 2.73779 45.8951 2.93746 46.178C3.13712 46.4609 3.40199 46.6916 3.70966 46.8506C4.01733 47.0095 4.35875 47.092 4.70505 47.091H15.5316C15.9348 47.019 16.3117 46.8412 16.6237 46.5758C16.9358 46.3105 17.1718 45.967 17.3076 45.5806L19.9191 37.8843L29.2472 46.5848C29.6381 46.9081 30.1285 47.0869 30.6358 47.091H42.7675L37.4467 31.8858L21.9358 31.8895L31.429 3.90822H17.8186Z" fill="url(#paint1_linear_4015_187)"/>
<path d="M35.1404 5.37695C34.9959 4.94885 34.7208 4.57684 34.3538 4.31335C33.9868 4.04985 33.5463 3.90815 33.0945 3.9082H17.9805C18.4323 3.90823 18.8727 4.04996 19.2397 4.31344C19.6067 4.57693 19.8818 4.94889 20.0263 5.37695L33.143 44.2415C33.2526 44.5664 33.2833 44.9126 33.2326 45.2517C33.1819 45.5908 33.0511 45.9129 32.8512 46.1914C32.6513 46.4699 32.3879 46.6968 32.0829 46.8533C31.7779 47.0099 31.44 47.0915 31.0971 47.0915H46.2117C46.5545 47.0914 46.8924 47.0097 47.1973 46.8532C47.5023 46.6966 47.7656 46.4697 47.9654 46.1912C48.1653 45.9127 48.296 45.5906 48.3467 45.2516C48.3974 44.9126 48.3667 44.5663 48.257 44.2415L35.1404 5.37695Z" fill="url(#paint2_linear_4015_187)"/>
<defs>
<linearGradient id="paint0_linear_4015_187" x1="22.7621" y1="7.10824" x2="8.67825" y2="48.7155" gradientUnits="userSpaceOnUse">
<stop stop-color="#353535"/>
<stop offset="1" stop-color="#525253"/>
</linearGradient>
<linearGradient id="paint1_linear_4015_187" x1="27.1608" y1="26.4983" x2="23.903" y2="27.5999" gradientUnits="userSpaceOnUse">
<stop stop-opacity="0.3"/>
<stop offset="0.071" stop-opacity="0.2"/>
<stop offset="0.321" stop-opacity="0.1"/>
<stop offset="0.623" stop-opacity="0.05"/>
<stop offset="1" stop-opacity="0"/>
</linearGradient>
<linearGradient id="paint2_linear_4015_187" x1="25.3695" y1="5.89466" x2="40.8294" y2="47.0827" gradientUnits="userSpaceOnUse">
<stop stop-color="#353535"/>
<stop offset="1" stop-color="#353535"/>
</linearGradient>
</defs>
</svg>
