<svg width="45" height="51" viewBox="0 0 45 51" fill="none" xmlns="http://www.w3.org/2000/svg">
<g clip-path="url(#clip0_4015_152)">
<path d="M4.4437 45.2625L0.787109 0.583496L44.4564 0.673281L40.5899 45.2625L22.7865 50.4165L4.4437 45.2625Z" fill="#353535"/>
<path d="M22.7871 46.1013V4.83838L40.7704 4.89824L37.5635 41.8159L22.7871 46.1013Z" fill="#525251"/>
<path d="M20.8601 9.73779H16.1058V37.2013L12.408 36.4971V32.8001L8.00586 32.0959V40.3702L20.8601 43.7151V9.73779ZM24.4266 9.73779H37.5883L36.7078 15.0016H29.451V23.6396H36.7078L35.8274 41.0744L24.4266 43.7151V38.2576L32.1296 35.6169L32.5744 28.3989L24.4266 29.5784V9.73779Z" fill="#A0730C"/>
</g>
<defs>
<clipPath id="clip0_4015_152">
<rect width="43.6693" height="50" fill="white" transform="translate(0.787109 0.5)"/>
</clipPath>
</defs>
</svg>
