<svg width="50" height="51" viewBox="0 0 50 51" fill="none" xmlns="http://www.w3.org/2000/svg">
<g clip-path="url(#clip0_4015_69)">
<path d="M25 50.5C38.8071 50.5 50 39.3071 50 25.5C50 11.6929 38.8071 0.5 25 0.5C11.1929 0.5 0 11.6929 0 25.5C0 39.3071 11.1929 50.5 25 50.5Z" fill="#353535"/>
<path opacity="0.1" d="M7.67245 7.53125C5.13101 9.79595 3.07885 12.5558 1.64176 15.6417C0.204661 18.7275 -0.587093 22.0744 -0.684975 25.477C-0.782856 28.8797 -0.184803 32.2665 1.07253 35.4299C2.32986 38.5932 4.21997 41.4665 6.62702 43.8736C9.03407 46.2806 11.9073 48.1707 15.0707 49.428C18.2341 50.6854 21.6209 51.2834 25.0235 51.1855C28.4262 51.0877 31.7731 50.2959 34.8589 48.8588C37.9448 47.4217 40.7046 45.3696 42.9693 42.8281L7.67245 7.53125Z" fill="#A0730C"/>
<path d="M5.78135 29.6016C5.63551 29.6039 5.49079 29.576 5.35632 29.5195C5.22185 29.463 5.10055 29.3793 5.0001 29.2735C4.89688 29.1715 4.81531 29.0498 4.76028 28.9156C4.70524 28.7813 4.67786 28.6373 4.67978 28.4923C4.67874 28.3473 4.70652 28.2036 4.76151 28.0695C4.8165 27.9354 4.8976 27.8135 5.0001 27.711C5.09957 27.6035 5.2205 27.518 5.35507 27.4601C5.48965 27.4023 5.63487 27.3733 5.78135 27.3751C5.92761 27.3747 6.0724 27.4043 6.20677 27.4621C6.34114 27.5199 6.46224 27.6046 6.56259 27.711C6.66686 27.8126 6.74963 27.9341 6.806 28.0683C6.86237 28.2025 6.89118 28.3467 6.89072 28.4923C6.89208 28.638 6.86369 28.7824 6.80726 28.9167C6.75084 29.0511 6.66758 29.1725 6.56259 29.2735C6.46129 29.3781 6.33983 29.4612 6.20556 29.5175C6.07128 29.5739 5.92698 29.6025 5.78135 29.6016Z" fill="#A0730C"/>
<path d="M21.3047 29.4062H19.2578L11.9375 18.0469C11.7552 17.767 11.6033 17.4684 11.4844 17.1562H11.4219C11.4914 17.8048 11.5175 18.4573 11.5 19.1094V29.4062H9.83594V15.1641H12L19.125 26.3203C19.4219 26.7839 19.6146 27.1016 19.7031 27.2734H19.7422C19.6598 26.5787 19.6258 25.8791 19.6406 25.1797V15.1641H21.3047V29.4062Z" fill="#A0730C"/>
<path d="M32.5703 29.4062H25V15.1641H32.2188V16.6719H26.7031V21.4062H31.8437V22.9062H26.7031V27.8438H32.5781L32.5703 29.4062Z" fill="#A0730C"/>
<path d="M43.75 16.6719H39.6094V29.4062H37.9453V16.6719H33.8516V15.1641H43.75V16.6719Z" fill="#A0730C"/>
<path d="M20.4059 39.0936C19.8419 39.3667 19.2197 39.4981 18.5934 39.4764C18.1772 39.4951 17.7618 39.4246 17.3751 39.2697C16.9884 39.1147 16.6393 38.8789 16.3512 38.5779C15.7772 37.9354 15.4747 37.0952 15.5074 36.2342C15.4864 35.768 15.5593 35.3023 15.7217 34.8648C15.884 34.4273 16.1327 34.0269 16.4528 33.6873C16.7647 33.3677 17.1397 33.1166 17.554 32.9498C17.9682 32.783 18.4127 32.7043 18.859 32.7186C19.3932 32.7003 19.9253 32.7934 20.4215 32.992V33.7732C19.9437 33.5087 19.405 33.3741 18.859 33.3826C18.5148 33.3729 18.1725 33.4377 17.8556 33.5726C17.5388 33.7074 17.2548 33.9091 17.0231 34.1639C16.5358 34.7189 16.2837 35.4418 16.3199 36.1795C16.2835 36.8783 16.5186 37.5641 16.9762 38.0936C17.1957 38.3296 17.4636 38.5153 17.7616 38.638C18.0597 38.7607 18.3807 38.8175 18.7028 38.8045C19.3026 38.8202 19.895 38.6687 20.4137 38.367L20.4059 39.0936Z" fill="#A0730C"/>
<path d="M23.6019 39.4766C23.2909 39.4867 22.9814 39.4298 22.6943 39.3098C22.4072 39.1899 22.1493 39.0096 21.9379 38.7813C21.5107 38.3045 21.2889 37.6785 21.3207 37.0391C21.3012 36.7041 21.3485 36.3686 21.4598 36.0521C21.5711 35.7356 21.7442 35.4444 21.9691 35.1954C22.1986 34.9714 22.4717 34.7969 22.7713 34.6826C23.071 34.5684 23.3909 34.5169 23.7113 34.5313C24.0141 34.5152 24.3169 34.5648 24.5987 34.6767C24.8806 34.7886 25.1349 34.9602 25.3441 35.1797C25.7594 35.6801 25.9688 36.3197 25.9301 36.9688C25.9628 37.6275 25.7356 38.2728 25.2973 38.7657C25.0819 38.9984 24.8191 39.1823 24.5267 39.305C24.2342 39.4276 23.9189 39.4861 23.6019 39.4766ZM23.6566 35.2032C23.4417 35.1941 23.2276 35.2337 23.0301 35.3189C22.8326 35.4041 22.6569 35.5328 22.516 35.6954C22.2154 36.0824 22.0655 36.5655 22.0941 37.0547C22.0668 37.5294 22.2172 37.9973 22.516 38.3672C22.6583 38.5275 22.8345 38.6541 23.0318 38.7379C23.229 38.8216 23.4425 38.8605 23.6566 38.8516C23.8663 38.864 24.076 38.8282 24.2696 38.7469C24.4633 38.6657 24.6358 38.5411 24.7738 38.3829C25.0578 37.9947 25.1961 37.519 25.1644 37.0391C25.1953 36.5569 25.0572 36.0789 24.7738 35.6875C24.6377 35.526 24.466 35.3982 24.2721 35.3141C24.0783 35.2301 23.8676 35.1921 23.6566 35.2032Z" fill="#A0730C"/>
<path d="M29.5781 35.4373C29.4094 35.3267 29.209 35.2746 29.0078 35.2888C28.8504 35.2946 28.6969 35.3389 28.5606 35.4179C28.4244 35.4969 28.3097 35.6082 28.2266 35.742C27.994 36.1101 27.8821 36.5416 27.9062 36.9763V39.367H27.125V34.6795H27.9062V35.656C27.9921 35.3539 28.163 35.0827 28.3984 34.8748C28.6022 34.6979 28.863 34.6008 29.1328 34.6013C29.2838 34.5945 29.4348 34.6157 29.5781 34.6638V35.4373Z" fill="#A0730C"/>
<path d="M34.1553 37.2186H30.8506C30.8284 37.6553 30.9706 38.0845 31.249 38.4217C31.3938 38.5661 31.5675 38.6784 31.7587 38.7511C31.9499 38.8238 32.1542 38.8553 32.3584 38.8436C32.888 38.8383 33.4002 38.6538 33.8115 38.3201V39.0233C33.3285 39.3417 32.7565 39.4977 32.1787 39.4686C31.8872 39.4833 31.596 39.4335 31.3259 39.3228C31.0558 39.212 30.8135 39.0431 30.6162 38.828C30.2095 38.3206 30.0062 37.6801 30.0459 37.0311C30.0178 36.3805 30.2385 35.7436 30.6631 35.2498C30.8563 35.0266 31.0967 34.8492 31.367 34.7303C31.6372 34.6113 31.9305 34.554 32.2256 34.5623C32.4921 34.5474 32.7584 34.5931 33.0047 34.6959C33.251 34.7988 33.4707 34.9561 33.6475 35.1561C34.0072 35.6304 34.1846 36.2182 34.1475 36.8123L34.1553 37.2186ZM33.374 36.5858C33.3899 36.2238 33.2794 35.8675 33.0615 35.578C32.9546 35.4572 32.8218 35.3621 32.673 35.2999C32.5242 35.2377 32.3632 35.2099 32.2022 35.2186C32.034 35.2165 31.8673 35.2495 31.7126 35.3154C31.558 35.3813 31.4187 35.4787 31.3037 35.6014C31.0466 35.8734 30.8848 36.2216 30.8428 36.5936L33.374 36.5858Z" fill="#A0730C"/>
</g>
<defs>
<clipPath id="clip0_4015_69">
<rect width="50" height="50" fill="white" transform="translate(0 0.5)"/>
</clipPath>
</defs>
</svg>
