<svg width="156" height="157" viewBox="0 0 156 157" fill="none" xmlns="http://www.w3.org/2000/svg">
<g clip-path="url(#clip0_2249_553)">
<path d="M155.14 118.688C151.863 116.815 148.846 114.578 146.089 112.03L145.985 111.926L145.933 111.874C135.998 102.615 130.328 90.0786 129.86 76.5023C129.444 62.9259 134.334 50.0258 143.645 40.1947L143.801 39.9866C148.43 34.993 152.487 29.5833 155.921 23.7574C156.493 22.8211 156.181 21.5727 155.244 21.0005L145.777 15.2267C144.841 14.6545 143.541 14.9666 143.02 15.9029C140.16 20.7925 136.726 25.3699 132.825 29.5833C132.721 29.6873 132.669 29.7393 132.565 29.8433C132.565 29.8433 132.565 29.8433 132.513 29.8954C132.513 29.8954 132.513 29.8954 132.461 29.9474C121.85 41.235 108.325 49.1415 93.3966 52.6786C88.1949 53.927 82.7852 54.6553 77.3755 54.8113C71.0294 55.0194 65.3076 51.1702 62.8628 45.2923C62.4987 44.46 62.1346 43.5757 61.7705 42.7435C61.2503 41.6511 62.1866 40.4027 63.383 40.6108C67.8044 41.391 72.3819 41.7031 77.0114 41.5991C94.645 41.0269 110.978 33.6406 122.994 20.7404L123.15 20.5844C126.427 17.0473 129.288 13.146 131.733 9.0367C132.305 8.1004 131.993 6.852 131.057 6.27982L121.59 0.505974C120.601 -0.0662084 119.353 0.245891 118.781 1.23421C116.908 4.51125 114.671 7.52822 112.071 10.2851L111.915 10.4411C102.656 20.3763 90.1196 26.0461 76.5432 26.5143C63.0189 26.8784 50.1188 21.9888 40.2356 12.6779L40.1316 12.5738L40.0796 12.5218C35.086 7.89233 29.6762 3.83504 23.8504 0.349925C22.9141 -0.222258 21.6657 0.0898414 21.0935 1.02614L15.3197 10.5452C14.7475 11.4815 15.0596 12.7819 15.9959 13.3021C20.9375 16.215 25.5149 19.6481 29.7283 23.5493L29.7803 23.6014L29.8323 23.6534C41.1719 34.2648 49.0784 47.8411 52.7196 62.8219C53.968 68.0235 54.6962 73.3813 54.8523 78.791C54.8523 78.843 54.8523 78.895 54.8523 78.947C55.0604 85.2411 51.1591 90.9629 45.3332 93.3556C44.501 93.7197 43.6167 94.0839 42.7844 94.448C41.6921 94.9681 40.4437 94.0319 40.6518 92.8355C41.432 88.4141 41.7441 83.8366 41.6401 79.2071C41.1199 61.6775 33.7856 45.3963 20.9375 33.3805C20.8334 33.2764 20.7294 33.1724 20.5733 33.0684C17.0362 29.8433 13.187 26.9824 9.07767 24.5897C8.14137 24.0175 6.89297 24.3296 6.32079 25.2659L0.598963 34.7329C0.0267799 35.7212 0.33888 36.9696 1.3272 37.5418C4.55223 39.4144 7.6212 41.6511 10.3781 44.1999L10.5862 44.356C20.5213 53.6149 26.1911 66.1509 26.6593 79.7273C27.0754 93.3036 22.1859 106.152 12.8749 116.035L12.6668 116.243C8.03734 121.237 3.98004 126.646 0.546946 132.472C-0.0252367 133.408 0.286863 134.657 1.22316 135.229L10.6902 141.003C11.6265 141.575 12.8749 141.263 13.4471 140.327C16.308 135.437 19.7411 130.86 23.6423 126.646C23.7464 126.542 23.7984 126.49 23.9024 126.386C23.9024 126.386 23.9024 126.386 23.9024 126.334C34.5138 115.047 48.0381 107.14 63.0189 103.551C68.2206 102.302 73.6303 101.574 79.04 101.418C85.386 101.21 91.1079 105.059 93.5526 110.937C93.9168 111.77 94.2809 112.654 94.645 113.486C95.1652 114.578 94.2289 115.827 93.0325 115.619C88.6111 114.839 84.0336 114.526 79.4041 114.63C61.7705 115.203 45.4893 122.589 33.4735 135.437L33.3174 135.593L33.2654 135.645C29.9883 139.182 27.1274 143.084 24.6827 147.193C24.1105 148.129 24.4226 149.378 25.3589 149.95L34.8259 155.724C35.8142 156.296 37.0626 155.984 37.6348 154.995C39.5074 151.718 41.7441 148.701 44.2929 145.944L44.3969 145.84L44.449 145.788C53.7079 135.853 66.2439 130.183 79.8203 129.715C93.3966 129.299 106.297 134.189 116.128 143.5L116.336 143.656C121.33 148.285 126.739 152.342 132.565 155.776C133.501 156.348 134.75 156.036 135.322 155.099L141.096 145.632C141.668 144.696 141.356 143.396 140.42 142.875C135.478 139.963 130.901 136.529 126.687 132.68C126.635 132.628 126.583 132.576 126.531 132.524L126.479 132.472C115.14 121.861 107.285 108.336 103.696 93.3556C102.447 88.154 101.719 82.7963 101.563 77.3865C101.563 77.3345 101.563 77.2825 101.563 77.2305C101.355 70.9365 105.256 65.2146 111.082 62.8219C111.915 62.4578 112.799 62.0936 113.631 61.7295C114.723 61.2094 115.972 62.1457 115.764 63.342C114.983 67.7635 114.671 72.3409 114.775 76.9704C115.348 94.552 122.734 110.885 135.582 122.901L135.634 122.953L135.738 123.057L135.79 123.109C139.327 126.386 143.229 129.247 147.338 131.692C148.274 132.264 149.523 131.952 150.095 131.016L155.869 121.549C156.441 120.508 156.129 119.26 155.14 118.688ZM78.6239 86.3334C78.5198 86.3334 78.4158 86.3334 78.3118 86.3334C73.8383 86.4894 70.1452 82.9523 70.0411 78.4789C70.0411 78.4269 70.0411 78.4269 70.0411 78.3748C70.0411 78.3228 70.0411 78.3228 70.0411 78.2708C69.8851 73.7974 73.4222 70.0522 77.8956 69.8961C77.9477 69.8961 77.9477 69.8961 77.9997 69.8961C78.0517 69.8961 78.0517 69.8961 78.1037 69.8961C82.5771 69.7401 86.3223 73.2772 86.4784 77.7506C86.4784 77.8027 86.4784 77.8027 86.4784 77.8547C86.4784 77.9067 86.4784 77.9067 86.4784 77.9587C86.5304 82.4321 83.0973 86.1773 78.6239 86.3334Z" fill="#353535"/>
</g>
<defs>
<clipPath id="clip0_2249_553">
<rect width="155" height="156" fill="white" transform="translate(0.234375 0.0627441)"/>
</clipPath>
</defs>
</svg>
