<svg width="25" height="26" viewBox="0 0 25 26" fill="none" xmlns="http://www.w3.org/2000/svg">
<g clip-path="url(#clip0_2249_524)">
<path d="M17.8273 0.571057C16.9387 0.64246 16.1056 1.45963 16.0184 2.3482C16.0025 2.47514 16.0025 2.61002 16.0184 2.72902C16.0818 3.41925 15.82 4.10155 15.3202 4.58551L15.2091 4.68864C14.9711 4.91872 14.4713 5.06153 13.9794 5.1488C13.1146 5.29954 12.2261 5.29954 11.3613 5.1488C10.8694 5.06153 10.3696 4.91872 10.1316 4.68864L10.0284 4.58551C9.52861 4.10155 9.2668 3.41925 9.33027 2.72902C9.3382 2.60208 9.3382 2.47514 9.33027 2.3482C9.243 1.45963 8.40996 0.64246 7.51345 0.571057C6.29166 0.475853 5.28408 1.48343 5.37928 2.70522C5.45862 3.6652 6.22819 4.4427 7.18817 4.52204C7.31511 4.52997 7.44205 4.52997 7.56105 4.52204C8.26715 4.45063 8.97325 4.66484 9.48101 5.16467L9.57621 5.25987C10.1236 5.79143 10.3616 6.56893 10.2426 7.32263C10.2109 7.50511 10.203 7.69552 10.2188 7.89386C10.3061 9.09978 11.2899 10.0836 12.4958 10.1629C13.9318 10.2581 15.1298 9.12358 15.1298 7.71138C15.1298 7.56858 15.1139 7.42577 15.0901 7.2909C14.9632 6.54513 15.225 5.78349 15.7724 5.25194L15.8597 5.16467C16.3675 4.67278 17.0736 4.45063 17.7797 4.52204C17.8987 4.5379 18.0256 4.5379 18.1525 4.52204C19.1125 4.4427 19.8821 3.6652 19.9614 2.70522C20.0566 1.48343 19.049 0.475853 17.8273 0.571057Z" fill="#353535"/>
<path d="M0.381238 7.70339C0.452641 8.59196 1.26981 9.425 2.15839 9.51227C2.28532 9.52814 2.4202 9.52814 2.5392 9.51227C3.22943 9.4488 3.91173 9.71062 4.39569 10.2104L4.49883 10.3215C4.7289 10.5595 4.87171 11.0593 4.95898 11.5512C5.10972 12.416 5.10972 13.3046 4.95898 14.1694C4.87171 14.6612 4.7289 15.1611 4.49883 15.3991L4.39569 15.5022C3.91173 16.002 3.22943 16.2638 2.5392 16.2004C2.41226 16.1924 2.28532 16.1924 2.15839 16.2004C1.26981 16.2876 0.452641 17.1207 0.381238 18.0172C0.286033 19.239 1.29361 20.2545 2.52334 20.1514C3.48331 20.072 4.26082 19.3025 4.34015 18.3425C4.34809 18.2155 4.34809 18.0886 4.34015 17.9696C4.26875 17.2635 4.48296 16.5574 4.98278 16.0496L5.07799 15.9544C5.60954 15.407 6.38705 15.169 7.14075 15.288C7.32322 15.3197 7.51363 15.3277 7.71197 15.3118C8.9179 15.2245 9.90167 14.2408 9.98101 13.0348C10.0762 11.5988 8.9417 10.4008 7.5295 10.4008C7.38669 10.4008 7.24389 10.4167 7.10901 10.4405C6.36325 10.5675 5.60161 10.3056 5.07005 9.75822L4.98278 9.67095C4.49089 9.16319 4.26875 8.45709 4.34015 7.75099C4.35602 7.63199 4.35602 7.50505 4.34015 7.37811C4.25288 6.41813 3.47538 5.64063 2.5154 5.56923C1.29361 5.47402 0.286033 6.4816 0.381238 7.70339Z" fill="#353535"/>
<path d="M7.51184 25.1497C8.40041 25.0783 9.23345 24.2611 9.32072 23.3725C9.33659 23.2456 9.33659 23.1107 9.32072 22.9917C9.25725 22.3015 9.51906 21.6192 10.0189 21.1352L10.122 21.0321C10.36 20.802 10.8599 20.6592 11.3517 20.5719C12.2165 20.4212 13.1051 20.4212 13.9699 20.5719C14.4618 20.6592 14.9616 20.802 15.1996 21.0321L15.3027 21.1352C15.8026 21.6192 16.0644 22.3015 16.0009 22.9917C15.993 23.1186 15.993 23.2456 16.0009 23.3725C16.0882 24.2611 16.9212 25.0783 17.8098 25.1497C19.0316 25.2449 20.0471 24.2373 19.9439 23.0076C19.8646 22.0476 19.095 21.2701 18.1351 21.1908C18.0081 21.1828 17.8812 21.1828 17.7622 21.1908C17.0561 21.2622 16.35 21.0479 15.8422 20.5481L15.747 20.4529C15.1996 19.9214 14.9616 19.1439 15.0806 18.3902C15.1123 18.2077 15.1203 18.0173 15.1044 17.8189C15.0171 16.613 14.0333 15.6292 12.8274 15.5499C11.3914 15.4547 10.1934 16.5892 10.1934 18.0014C10.1934 18.1442 10.2093 18.287 10.2331 18.4219C10.36 19.1677 10.0982 19.9293 9.5508 20.4609L9.46353 20.5481C8.95577 21.04 8.24967 21.2622 7.54358 21.1908C7.42457 21.1749 7.29763 21.1749 7.17069 21.1908C6.21071 21.2701 5.44115 22.0476 5.36181 23.0076C5.28247 24.2373 6.29005 25.2449 7.51184 25.1497Z" fill="#353535"/>
<path d="M24.9589 18.0172C24.8875 17.1286 24.0703 16.2956 23.1817 16.2083C23.0548 16.1925 22.9199 16.1925 22.8009 16.2083C22.1107 16.2718 21.4284 16.01 20.9444 15.5102L20.8413 15.3991C20.6112 15.1611 20.4684 14.6613 20.3811 14.1694C20.2304 13.3046 20.2304 12.416 20.3811 11.5512C20.4684 11.0594 20.6112 10.5595 20.8413 10.3215L20.9444 10.2184C21.4284 9.71856 22.1107 9.45675 22.8009 9.52022C22.9278 9.52815 23.0548 9.52815 23.1817 9.52022C24.0703 9.43295 24.8875 8.59991 24.9589 7.71133C25.0541 6.48954 24.0465 5.47403 22.8168 5.57717C21.8568 5.65651 21.0793 6.42608 21 7.38605C20.992 7.51299 20.992 7.63993 21 7.75894C21.0714 8.46503 20.8572 9.17113 20.3573 9.67889L20.2621 9.7741C19.7306 10.3215 18.9531 10.5595 18.1994 10.4405C18.0169 10.4088 17.8265 10.4009 17.6281 10.4167C16.4222 10.504 15.4384 11.4878 15.3591 12.6937C15.2639 14.1297 16.3984 15.3277 17.8106 15.3277C17.9534 15.3277 18.0962 15.3118 18.2311 15.288C18.9769 15.1611 19.7385 15.4229 20.2701 15.9703L20.3573 16.0576C20.8492 16.5653 21.0714 17.2714 21 17.9775C20.9841 18.0965 20.9841 18.2235 21 18.3504C21.0793 19.3104 21.8568 20.08 22.8168 20.1593C24.0465 20.2466 25.0541 19.239 24.9589 18.0172Z" fill="#353535"/>
<path d="M7.35432 9.13161C8.23065 9.13161 8.94106 8.4212 8.94106 7.54487C8.94106 6.66854 8.23065 5.95813 7.35432 5.95813C6.47799 5.95813 5.76758 6.66854 5.76758 7.54487C5.76758 8.4212 6.47799 9.13161 7.35432 9.13161Z" fill="#353535"/>
<path d="M7.35432 19.7625C8.23065 19.7625 8.94106 19.0521 8.94106 18.1757C8.94106 17.2994 8.23065 16.589 7.35432 16.589C6.47799 16.589 5.76758 17.2994 5.76758 18.1757C5.76758 19.0521 6.47799 19.7625 7.35432 19.7625Z" fill="#353535"/>
<path d="M17.9852 19.7627C18.8615 19.7627 19.5719 19.0523 19.5719 18.176C19.5719 17.2996 18.8615 16.5892 17.9852 16.5892C17.1088 16.5892 16.3984 17.2996 16.3984 18.176C16.3984 19.0523 17.1088 19.7627 17.9852 19.7627Z" fill="#353535"/>
<path d="M17.9852 9.13149C18.8615 9.13149 19.5719 8.42108 19.5719 7.54475C19.5719 6.66842 18.8615 5.95801 17.9852 5.95801C17.1088 5.95801 16.3984 6.66842 16.3984 7.54475C16.3984 8.42108 17.1088 9.13149 17.9852 9.13149Z" fill="#353535"/>
<path d="M12.6688 14.4469C13.5451 14.4469 14.2555 13.7365 14.2555 12.8602C14.2555 11.9838 13.5451 11.2734 12.6688 11.2734C11.7924 11.2734 11.082 11.9838 11.082 12.8602C11.082 13.7365 11.7924 14.4469 12.6688 14.4469Z" fill="#353535"/>
</g>
<defs>
<clipPath id="clip0_2249_524">
<rect width="24.5911" height="24.5911" fill="white" transform="translate(0.376953 0.564697)"/>
</clipPath>
</defs>
</svg>
