<?xml version="1.0" encoding="UTF-8" standalone="no"?>
<svg
   width="25"
   height="26"
   viewBox="0 0 25 26"
   fill="none"
   version="1.1"
   id="svg9"
   sodipodi:docname="hireIcon.svg"
   xmlns:inkscape="http://www.inkscape.org/namespaces/inkscape"
   xmlns:sodipodi="http://sodipodi.sourceforge.net/DTD/sodipodi-0.dtd"
   xmlns="http://www.w3.org/2000/svg"
   xmlns:svg="http://www.w3.org/2000/svg">
  <sodipodi:namedview
     id="namedview9"
     pagecolor="#ffffff"
     bordercolor="#000000"
     borderopacity="0.25"
     inkscape:showpageshadow="2"
     inkscape:pageopacity="0.0"
     inkscape:pagecheckerboard="0"
     inkscape:deskcolor="#d1d1d1" />
  <g
     clip-path="url(#clip0_2249_524)"
     id="g9">
    <path
       d="M 17.8273,0.571057 C 16.9387,0.64246 16.1056,1.45963 16.0184,2.3482 c -0.0159,0.12694 -0.0159,0.26182 0,0.38082 0.0634,0.69023 -0.1984,1.37253 -0.6982,1.85649 l -0.1111,0.10313 c -0.238,0.23008 -0.7378,0.37289 -1.2297,0.46016 -0.8648,0.15074 -1.7533,0.15074 -2.6181,0 C 10.8694,5.06153 10.3696,4.91872 10.1316,4.68864 L 10.0284,4.58551 C 9.52861,4.10155 9.2668,3.41925 9.33027,2.72902 9.3382,2.60208 9.3382,2.47514 9.33027,2.3482 9.243,1.45963 8.40996,0.64246 7.51345,0.571057 6.29166,0.475853 5.28408,1.48343 5.37928,2.70522 5.45862,3.6652 6.22819,4.4427 7.18817,4.52204 c 0.12694,0.00793 0.25388,0.00793 0.37288,0 0.7061,-0.07141 1.4122,0.1428 1.91996,0.64263 l 0.0952,0.0952 c 0.54739,0.53156 0.78539,1.30906 0.66639,2.06276 -0.0317,0.18248 -0.0396,0.37289 -0.0238,0.57123 0.0873,1.20592 1.0711,2.18974 2.277,2.26904 1.436,0.0952 2.634,-1.03932 2.634,-2.45152 0,-0.1428 -0.0159,-0.28561 -0.0397,-0.42048 -0.1269,-0.74577 0.1349,-1.50741 0.6823,-2.03896 l 0.0873,-0.08727 c 0.5078,-0.49189 1.2139,-0.71404 1.92,-0.64263 0.119,0.01586 0.2459,0.01586 0.3728,0 C 19.1125,4.4427 19.8821,3.6652 19.9614,2.70522 20.0566,1.48343 19.049,0.475853 17.8273,0.571057 Z"
       fill="#353535"
       id="path1"
       style="fill:#f6f6f6;fill-opacity:1" />
    <path
       d="M 0.381238,7.70339 C 0.452641,8.59196 1.26981,9.425 2.15839,9.51227 c 0.12693,0.01587 0.26181,0.01587 0.38081,0 0.69023,-0.06347 1.37253,0.19835 1.85649,0.69813 l 0.10314,0.1111 c 0.23007,0.238 0.37288,0.7378 0.46015,1.2297 0.15074,0.8648 0.15074,1.7534 0,2.6182 -0.08727,0.4918 -0.23008,0.9917 -0.46015,1.2297 l -0.10314,0.1031 c -0.48396,0.4998 -1.16626,0.7616 -1.85649,0.6982 -0.12694,-0.008 -0.25388,-0.008 -0.38081,0 -0.88858,0.0872 -1.705749,0.9203 -1.777152,1.8168 -0.095205,1.2218 0.912372,2.2373 2.142102,2.1342 0.95997,-0.0794 1.73748,-0.8489 1.81681,-1.8089 0.00794,-0.127 0.00794,-0.2539 0,-0.3729 -0.0714,-0.7061 0.14281,-1.4122 0.64263,-1.92 L 5.07799,15.9544 C 5.60954,15.407 6.38705,15.169 7.14075,15.288 c 0.18247,0.0317 0.37288,0.0397 0.57122,0.0238 1.20593,-0.0873 2.1897,-1.071 2.26904,-2.277 0.09519,-1.436 -1.03931,-2.634 -2.45151,-2.634 -0.14281,0 -0.28561,0.0159 -0.42049,0.0397 -0.74576,0.127 -1.5074,-0.1349 -2.03896,-0.68228 L 4.98278,9.67095 C 4.49089,9.16319 4.26875,8.45709 4.34015,7.75099 c 0.01587,-0.119 0.01587,-0.24594 0,-0.37288 C 4.25288,6.41813 3.47538,5.64063 2.5154,5.56923 1.29361,5.47402 0.286033,6.4816 0.381238,7.70339 Z"
       fill="#353535"
       id="path2"
       style="fill:#f6f6f6;fill-opacity:1" />
    <path
       d="m 7.51184,25.1497 c 0.88857,-0.0714 1.72161,-0.8886 1.80888,-1.7772 0.01587,-0.1269 0.01587,-0.2618 0,-0.3808 -0.06347,-0.6902 0.19834,-1.3725 0.69818,-1.8565 l 0.1031,-0.1031 c 0.238,-0.2301 0.7379,-0.3729 1.2297,-0.4602 0.8648,-0.1507 1.7534,-0.1507 2.6182,0 0.4919,0.0873 0.9917,0.2301 1.2297,0.4602 l 0.1031,0.1031 c 0.4999,0.484 0.7617,1.1663 0.6982,1.8565 -0.0079,0.1269 -0.0079,0.2539 0,0.3808 0.0873,0.8886 0.9203,1.7058 1.8089,1.7772 1.2218,0.0952 2.2373,-0.9124 2.1341,-2.1421 -0.0793,-0.96 -0.8489,-1.7375 -1.8088,-1.8168 -0.127,-0.008 -0.2539,-0.008 -0.3729,0 -0.7061,0.0714 -1.4122,-0.1429 -1.92,-0.6427 L 15.747,20.4529 c -0.5474,-0.5315 -0.7854,-1.309 -0.6664,-2.0627 0.0317,-0.1825 0.0397,-0.3729 0.0238,-0.5713 -0.0873,-1.2059 -1.0711,-2.1897 -2.277,-2.269 -1.436,-0.0952 -2.634,1.0393 -2.634,2.4515 0,0.1428 0.0159,0.2856 0.0397,0.4205 0.1269,0.7458 -0.1349,1.5074 -0.6823,2.039 l -0.08727,0.0872 c -0.50776,0.4919 -1.21386,0.7141 -1.91995,0.6427 -0.11901,-0.0159 -0.24595,-0.0159 -0.37289,0 -0.95998,0.0793 -1.72954,0.8568 -1.80888,1.8168 -0.07934,1.2297 0.92824,2.2373 2.15003,2.1421 z"
       fill="#353535"
       id="path3"
       style="fill:#f6f6f6;fill-opacity:1" />
    <path
       d="m 24.9589,18.0172 c -0.0714,-0.8886 -0.8886,-1.7216 -1.7772,-1.8089 -0.1269,-0.0158 -0.2618,-0.0158 -0.3808,0 -0.6902,0.0635 -1.3725,-0.1983 -1.8565,-0.6981 l -0.1031,-0.1111 c -0.2301,-0.238 -0.3729,-0.7378 -0.4602,-1.2297 -0.1507,-0.8648 -0.1507,-1.7534 0,-2.6182 0.0873,-0.4918 0.2301,-0.9917 0.4602,-1.2297 l 0.1031,-0.1031 c 0.484,-0.49984 1.1663,-0.76165 1.8565,-0.69818 0.1269,0.00793 0.2539,0.00793 0.3808,0 C 24.0703,9.43295 24.8875,8.59991 24.9589,7.71133 25.0541,6.48954 24.0465,5.47403 22.8168,5.57717 21.8568,5.65651 21.0793,6.42608 21,7.38605 20.992,7.51299 20.992,7.63993 21,7.75894 21.0714,8.46503 20.8572,9.17113 20.3573,9.67889 L 20.2621,9.7741 c -0.5315,0.5474 -1.309,0.7854 -2.0627,0.6664 -0.1825,-0.0317 -0.3729,-0.0396 -0.5713,-0.0238 -1.2059,0.0873 -2.1897,1.0711 -2.269,2.277 -0.0952,1.436 1.0393,2.634 2.4515,2.634 0.1428,0 0.2856,-0.0159 0.4205,-0.0397 0.7458,-0.1269 1.5074,0.1349 2.039,0.6823 l 0.0872,0.0873 c 0.4919,0.5077 0.7141,1.2138 0.6427,1.9199 -0.0159,0.119 -0.0159,0.246 0,0.3729 0.0793,0.96 0.8568,1.7296 1.8168,1.8089 1.2297,0.0873 2.2373,-0.9203 2.1421,-2.1421 z"
       fill="#353535"
       id="path4"
       style="fill:#f6f6f6;fill-opacity:1" />
    <path
       d="m 7.35432,9.13161 c 0.87633,0 1.58674,-0.71041 1.58674,-1.58674 0,-0.87633 -0.71041,-1.58674 -1.58674,-1.58674 -0.87633,0 -1.58674,0.71041 -1.58674,1.58674 0,0.87633 0.71041,1.58674 1.58674,1.58674 z"
       fill="#353535"
       id="path5"
       style="fill:#f6f6f6;fill-opacity:1" />
    <path
       d="m 7.35432,19.7625 c 0.87633,0 1.58674,-0.7104 1.58674,-1.5868 0,-0.8763 -0.71041,-1.5867 -1.58674,-1.5867 -0.87633,0 -1.58674,0.7104 -1.58674,1.5867 0,0.8764 0.71041,1.5868 1.58674,1.5868 z"
       fill="#353535"
       id="path6"
       style="fill:#f6f6f6;fill-opacity:1" />
    <path
       d="m 17.9852,19.7627 c 0.8763,0 1.5867,-0.7104 1.5867,-1.5867 0,-0.8764 -0.7104,-1.5868 -1.5867,-1.5868 -0.8764,0 -1.5868,0.7104 -1.5868,1.5868 0,0.8763 0.7104,1.5867 1.5868,1.5867 z"
       fill="#353535"
       id="path7"
       style="fill:#f6f6f6;fill-opacity:1" />
    <path
       d="m 17.9852,9.13149 c 0.8763,0 1.5867,-0.71041 1.5867,-1.58674 0,-0.87633 -0.7104,-1.58674 -1.5867,-1.58674 -0.8764,0 -1.5868,0.71041 -1.5868,1.58674 0,0.87633 0.7104,1.58674 1.5868,1.58674 z"
       fill="#353535"
       id="path8"
       style="fill:#f6f6f6;fill-opacity:1" />
    <path
       d="m 12.6688,14.4469 c 0.8763,0 1.5867,-0.7104 1.5867,-1.5867 0,-0.8764 -0.7104,-1.5868 -1.5867,-1.5868 -0.8764,0 -1.5868,0.7104 -1.5868,1.5868 0,0.8763 0.7104,1.5867 1.5868,1.5867 z"
       fill="#353535"
       id="path9"
       style="fill:#f6f6f6;fill-opacity:1" />
  </g>
  <defs
     id="defs9">
    <clipPath
       id="clip0_2249_524">
      <rect
         width="24.591101"
         height="24.591101"
         fill="#ffffff"
         transform="translate(0.376953,0.564697)"
         id="rect9"
         x="0"
         y="0" />
    </clipPath>
  </defs>
</svg>
