<svg width="45" height="51" viewBox="0 0 45 51" fill="none" xmlns="http://www.w3.org/2000/svg">
<path d="M22.0545 50.5C21.3695 50.5 20.7302 50.3163 20.1366 49.9946L14.0636 46.3657C13.1505 45.8606 13.6071 45.6768 13.881 45.585C15.114 45.1715 15.3421 45.0796 16.6206 44.3447C16.7576 44.2528 16.9404 44.2986 17.0774 44.3905L21.7349 47.1927C21.9175 47.2846 22.1457 47.2846 22.2827 47.1927L40.5021 36.5817C40.6835 36.4898 40.7766 36.3061 40.7766 36.0765V14.9005C40.7766 14.6708 40.6835 14.487 40.5021 14.3952L22.2827 3.83022C22.1001 3.73835 21.8717 3.73835 21.7349 3.83022L3.51596 14.3952C3.33315 14.487 3.24198 14.7168 3.24198 14.9005V36.0765C3.24198 36.2603 3.33315 36.4898 3.51596 36.5817L8.49302 39.4755C11.187 40.8537 12.8765 39.2459 12.8765 37.6382V16.7378C12.8765 16.4622 13.1047 16.1866 13.4245 16.1866H15.7531C16.0271 16.1866 16.3011 16.4164 16.3011 16.7378V37.6382C16.3011 41.2669 14.3376 43.38 10.9131 43.38C9.86294 43.38 9.04099 43.38 6.71213 42.2316L1.91764 39.4755C0.730537 38.7866 0 37.5003 0 36.1224V14.9464C0 13.5684 0.730537 12.2823 1.91764 11.5932L20.1366 0.98246C21.2781 0.33918 22.8306 0.33918 23.9721 0.98246L42.1918 11.5932C43.378 12.2823 44.1083 13.5684 44.1083 14.9464V36.1224C44.1083 37.5003 43.378 38.7866 42.1918 39.4755L23.9721 50.0865C23.4242 50.3163 22.7395 50.5 22.0545 50.5Z" fill="#353535"/>
<path d="M27.7411 36.0097C19.788 36.0097 18.1523 32.3085 18.1523 29.1625C18.1523 28.885 18.3794 28.6074 18.6974 28.6074H21.0604C21.333 28.6074 21.5603 28.7924 21.5603 29.07C21.9237 31.522 22.9689 32.7248 27.7862 32.7248C31.6029 32.7248 33.2393 31.8459 33.2393 29.764C33.2393 28.561 32.7833 27.6819 26.8312 27.0807C21.8783 26.5717 18.7884 25.4614 18.7884 21.4363C18.7884 17.689 21.8783 15.4683 27.0585 15.4683C32.876 15.4683 35.7379 17.504 36.1013 21.9453C36.1013 22.084 36.0561 22.2229 35.9659 22.3615C35.8733 22.4541 35.7379 22.5468 35.6001 22.5468H33.1918C32.9662 22.5468 32.7382 22.3615 32.6931 22.1304C32.1468 19.5859 30.7384 18.7529 27.0132 18.7529C22.8326 18.7529 22.3327 20.2335 22.3327 21.3438C22.3327 22.6855 22.9233 23.102 28.5581 23.8421C34.1466 24.5823 36.7829 25.6464 36.7829 29.6251C36.7829 33.6964 33.465 36.0097 27.7411 36.0097Z" fill="#353535"/>
</svg>
