<svg width="24" height="51" viewBox="0 0 24 51" fill="none" xmlns="http://www.w3.org/2000/svg">
<path d="M16.2084 6.07284C14.1111 3.58305 12.305 1.05437 11.9361 0.529177C11.8972 0.490274 11.8389 0.490274 11.8001 0.529177C11.4311 1.05437 9.62512 3.58305 7.52779 6.07284C-10.4742 29.0449 10.3631 44.5479 10.3631 44.5479L10.5378 44.6646C10.6932 47.057 11.0816 50.5 11.0816 50.5H11.8584H12.6352C12.6352 50.5 13.0236 47.0765 13.1789 44.6646L13.3537 44.5284C13.3731 44.5479 34.2104 29.0449 16.2084 6.07284ZM11.8584 44.2171C11.8584 44.2171 10.9262 43.4197 10.6738 43.0111V42.9724L11.8001 17.9577C11.8001 17.8799 11.9166 17.8799 11.9166 17.9577L13.043 42.9724V43.0111C12.7905 43.4197 11.8584 44.2171 11.8584 44.2171Z" fill="#353535"/>
</svg>
