<svg width="58" height="51" viewBox="0 0 58 51" fill="none" xmlns="http://www.w3.org/2000/svg">
<path d="M34.1081 25.5465C34.1081 28.305 31.8018 30.5415 28.9564 30.5415C26.1114 30.5415 23.8047 28.305 23.8047 25.5465C23.8047 22.7877 26.1114 20.5513 28.9564 20.5513C31.8018 20.5513 34.1081 22.7877 34.1081 25.5465Z" fill="#353535"/>
<path fill-rule="evenodd" clip-rule="evenodd" d="M45.6851 34.8198C46.773 39.1062 48.1405 47.0548 43.3197 49.7497C38.5215 52.4328 32.2774 47.2915 28.9803 44.2054C25.6928 47.2607 19.2734 52.3801 14.4567 49.6767C9.66033 46.9846 11.1394 39.1677 12.2515 34.8544C7.77725 33.6223 0.107422 30.9685 0.107422 25.5463C0.107422 20.1396 7.76927 17.2523 12.217 16.0214C11.1008 11.6842 9.69581 3.97904 14.4983 1.29289C19.333 -1.41 25.7324 3.58751 29.0601 6.70731C32.3784 3.60308 38.5624 -1.42711 43.3616 1.26654C48.1759 3.96866 46.922 11.8108 45.8099 16.149C50.1215 17.3827 57.7997 20.2071 57.7997 25.5463C57.7997 30.9163 50.0888 33.5917 45.6851 34.8198ZM45.1386 18.4481C44.4084 20.6892 43.4228 23.0725 42.2172 25.5344C43.368 27.9383 44.3153 30.2908 45.0251 32.5175C48.2534 31.61 55.3353 29.536 55.3353 25.5463C55.3353 21.5192 48.5393 19.4256 45.1386 18.4481ZM42.1266 3.33462C38.5459 1.32501 33.2268 6.13539 30.7763 8.42135C32.402 10.1454 34.0266 12.1496 35.6122 14.3752C38.4015 14.615 41.0363 15.0073 43.4259 15.5429C44.2086 12.4742 45.7232 5.35328 42.1266 3.33462ZM15.7298 3.36327C12.1486 5.36539 13.7855 12.2412 14.6066 15.436C16.9696 14.929 19.5855 14.5644 22.3813 14.3446C23.9772 12.1669 25.649 10.1652 27.3336 8.41212C25.2522 6.46 19.3276 1.35192 15.7298 3.36327ZM2.57183 25.5463C2.57183 29.5885 9.6114 31.6475 12.9133 32.5527C13.6353 30.276 14.5823 27.8954 15.7252 25.4881C14.5675 23.045 13.607 20.6267 12.8783 18.3231C9.7299 19.1969 2.57183 21.5017 2.57183 25.5463ZM15.6915 47.6086C19.2872 49.6266 24.8665 44.7119 27.2534 42.4998C25.5774 40.7547 23.9211 38.7681 22.3388 36.6029C19.6255 36.359 17.0281 35.9675 14.6403 35.4429C13.7444 38.9217 12.0996 45.5927 15.6915 47.6086ZM37.3753 34.0056C39.2161 33.7804 40.9797 33.4808 42.6357 33.1142C42.1386 31.5692 41.519 29.9537 40.7891 28.2975C39.7313 30.2437 38.5957 32.1508 37.3753 34.0056ZM28.9811 40.7921C30.1178 39.5981 31.2563 38.2648 32.3763 36.8183C30.1045 36.9225 27.8292 36.9229 25.5574 36.8198C26.6784 38.2529 27.8266 39.5843 28.9811 40.7921ZM17.1392 28.2992C16.4214 29.9496 15.8074 31.5723 15.3059 33.1394C16.952 33.4965 18.7074 33.7885 20.5363 34.01C19.3124 32.1592 18.1788 30.2529 17.1392 28.2992ZM20.5888 16.9121C18.6995 17.1165 16.9175 17.3937 15.272 17.741C15.7813 19.3356 16.4089 20.9933 17.142 22.6792C18.1959 20.7052 19.3468 18.7804 20.5888 16.9121ZM29.0493 10.1317C27.8813 11.3538 26.7161 12.7056 25.5782 14.1594C27.8628 14.0725 30.1518 14.0723 32.4363 14.1712C31.3128 12.6908 30.1784 11.3371 29.0493 10.1317ZM40.8126 22.765C41.5838 21.0608 42.2338 19.4121 42.7501 17.8444C41.0772 17.4742 39.2713 17.1762 37.3684 16.9548C38.5978 18.8448 39.7515 20.7815 40.8126 22.765ZM34.2368 16.6652C30.7422 16.4231 27.2259 16.4258 23.7301 16.6454C21.7438 19.4587 19.9755 22.4173 18.4492 25.4888C19.9682 28.554 21.7236 31.5069 23.7005 34.3158C27.1988 34.5721 30.7186 34.5729 34.2168 34.3142C36.1768 31.5056 37.9295 28.5604 39.4838 25.5229C37.948 22.4592 36.1834 19.5004 34.2368 16.6652ZM42.0888 47.6796C45.6855 45.6682 44.0845 38.5245 43.2988 35.4181C40.9053 35.9537 38.3061 36.3521 35.5849 36.5998C33.9995 38.7884 32.357 40.7785 30.7082 42.501C33.1257 44.7608 38.5268 49.6714 42.0888 47.6796Z" fill="#353535"/>
</svg>
