<svg width="59" height="51" viewBox="0 0 59 51" fill="none" xmlns="http://www.w3.org/2000/svg">
<path d="M34.7839 25.5465C34.7839 28.305 32.4776 30.5415 29.6322 30.5415C26.7872 30.5415 24.4805 28.305 24.4805 25.5465C24.4805 22.7877 26.7872 20.5513 29.6322 20.5513C32.4776 20.5513 34.7839 22.7877 34.7839 25.5465Z" fill="#353535"/>
<path fill-rule="evenodd" clip-rule="evenodd" d="M46.3628 34.8198C47.4507 39.1062 48.8182 47.0548 43.9975 49.7497C39.1992 52.4328 32.9552 47.2915 29.658 44.2054C26.3705 47.2607 19.9511 52.3801 15.1344 49.6767C10.3381 46.9846 11.8172 39.1677 12.9292 34.8544C8.45498 33.6223 0.785156 30.9685 0.785156 25.5463C0.785156 20.1396 8.447 17.2523 12.8947 16.0214C11.7786 11.6842 10.3735 3.97904 15.1761 1.29289C20.0107 -1.41 26.4102 3.58751 29.7378 6.70731C33.0561 3.60308 39.2402 -1.42711 44.0394 1.26654C48.8536 3.96866 47.5998 11.8108 46.4877 16.149C50.7992 17.3827 58.4775 20.2071 58.4775 25.5463C58.4775 30.9163 50.7665 33.5917 46.3628 34.8198ZM45.8163 18.4481C45.0861 20.6892 44.1005 23.0725 42.895 25.5344C44.0457 27.9383 44.993 30.2908 45.7028 32.5175C48.9311 31.61 56.013 29.536 56.013 25.5463C56.013 21.5192 49.2171 19.4256 45.8163 18.4481ZM42.8044 3.33462C39.2236 1.32501 33.9046 6.13539 31.454 8.42135C33.0798 10.1454 34.7044 12.1496 36.29 14.3752C39.0792 14.615 41.714 15.0073 44.1036 15.5429C44.8863 12.4742 46.4009 5.35328 42.8044 3.33462ZM16.4075 3.36327C12.8264 5.36539 14.4632 12.2412 15.2843 15.436C17.6473 14.929 20.2632 14.5644 23.059 14.3446C24.655 12.1669 26.3267 10.1652 28.0113 8.41212C25.93 6.46 20.0053 1.35192 16.4075 3.36327ZM3.24956 25.5463C3.24956 29.5885 10.2891 31.6475 13.591 32.5527C14.3131 30.276 15.2601 27.8954 16.4029 25.4881C15.2453 23.045 14.2847 20.6267 13.556 18.3231C10.4076 19.1969 3.24956 21.5017 3.24956 25.5463ZM16.3692 47.6086C19.965 49.6266 25.5442 44.7119 27.9311 42.4998C26.2552 40.7547 24.5988 38.7681 23.0165 36.6029C20.3032 36.359 17.7058 35.9675 15.318 35.4429C14.4222 38.9217 12.7773 45.5927 16.3692 47.6086ZM38.053 34.0056C39.8938 33.7804 41.6575 33.4808 43.3134 33.1142C42.8163 31.5692 42.1967 29.9537 41.4669 28.2975C40.409 30.2437 39.2734 32.1508 38.053 34.0056ZM29.6588 40.7921C30.7955 39.5981 31.934 38.2648 33.054 36.8183C30.7823 36.9225 28.5069 36.9229 26.2352 36.8198C27.3561 38.2529 28.5044 39.5843 29.6588 40.7921ZM17.8169 28.2992C17.0992 29.9496 16.4851 31.5723 15.9837 33.1394C17.6297 33.4965 19.3852 33.7885 21.214 34.01C19.9902 32.1592 18.8565 30.2529 17.8169 28.2992ZM21.2665 16.9121C19.3773 17.1165 17.5953 17.3937 15.9497 17.741C16.4591 19.3356 17.0867 20.9933 17.8197 22.6792C18.8736 20.7052 20.0246 18.7804 21.2665 16.9121ZM29.7271 10.1317C28.559 11.3538 27.3938 12.7056 26.2559 14.1594C28.5405 14.0725 30.8296 14.0723 33.114 14.1712C31.9905 12.6908 30.8561 11.3371 29.7271 10.1317ZM41.4903 22.765C42.2615 21.0608 42.9115 19.4121 43.4278 17.8444C41.755 17.4742 39.949 17.1762 38.0461 16.9548C39.2755 18.8448 40.4292 20.7815 41.4903 22.765ZM34.9146 16.6652C31.42 16.4231 27.9036 16.4258 24.4078 16.6454C22.4215 19.4587 20.6532 22.4173 19.1269 25.4888C20.6459 28.554 22.4013 31.5069 24.3782 34.3158C27.8765 34.5721 31.3963 34.5729 34.8946 34.3142C36.8546 31.5056 38.6073 28.5604 40.1615 25.5229C38.6257 22.4592 36.8611 19.5004 34.9146 16.6652ZM42.7665 47.6796C46.3632 45.6682 44.7623 38.5245 43.9765 35.4181C41.583 35.9537 38.9838 36.3521 36.2627 36.5998C34.6773 38.7884 33.0348 40.7785 31.3859 42.501C33.8034 44.7608 39.2046 49.6714 42.7665 47.6796Z" fill="#353535"/>
</svg>
