<svg width="43" height="51" viewBox="0 0 43 51" fill="none" xmlns="http://www.w3.org/2000/svg">
<path fill-rule="evenodd" clip-rule="evenodd" d="M42.179 5.75452C42.1943 5.67545 42.2021 5.59591 42.2021 5.51592C42.2021 2.74571 32.9341 0.5 21.5014 0.5C10.0688 0.5 0.800781 2.74571 0.800781 5.51592C0.800781 5.59591 0.808507 5.67545 0.823788 5.75452H0.800781V45.0061V45.0857H0.802913C0.963416 48.0831 10.169 50.4997 21.5014 50.4997C32.8339 50.4997 42.0394 48.0831 42.1999 45.0857H42.2021V45.0061V5.75452H42.179Z" fill="#353535"/>
<path d="M8.24633 38.4416C7.575 38.4416 6.93216 38.3909 6.31783 38.2896C5.70983 38.1946 5.18099 38.0806 4.73133 37.9476C4.28166 37.8082 3.96499 37.6816 3.78133 37.5676L4.21833 34.8126C4.45266 34.9456 4.76933 35.0817 5.16833 35.2211C5.56733 35.3604 6.00749 35.4807 6.48883 35.5821C6.9765 35.6771 7.46733 35.7246 7.96133 35.7246C8.62633 35.7246 9.10766 35.6296 9.40533 35.4396C9.70933 35.2496 9.86133 34.9456 9.86133 34.5276C9.86133 34.2236 9.7695 33.9671 9.58583 33.7581C9.40216 33.5427 9.09816 33.3242 8.67383 33.1026C8.25583 32.8809 7.69533 32.6022 6.99233 32.2666C6.39699 31.9816 5.84916 31.6459 5.34883 31.2596C4.84849 30.8669 4.44633 30.3982 4.14233 29.8536C3.83833 29.3026 3.68633 28.6502 3.68633 27.8965C3.68633 27.2505 3.80666 26.6869 4.04733 26.2056C4.29433 25.7179 4.63949 25.3125 5.08283 24.9895C5.53249 24.6665 6.06449 24.4259 6.67883 24.2676C7.29316 24.1029 7.974 24.0205 8.72133 24.0205C9.78533 24.0205 10.653 24.1187 11.3243 24.3151C11.9957 24.5114 12.458 24.6856 12.7113 24.8376L12.1603 27.4786C11.8753 27.2569 11.4352 27.0542 10.8398 26.8706C10.2508 26.6805 9.646 26.5855 9.02533 26.5855C8.582 26.5855 8.21783 26.6362 7.93283 26.7376C7.64783 26.8325 7.43566 26.9687 7.29633 27.146C7.157 27.3234 7.08733 27.5292 7.08733 27.7636C7.08733 28.0486 7.16966 28.3019 7.33433 28.5236C7.50533 28.7389 7.76816 28.9542 8.12283 29.1696C8.48383 29.3786 8.94933 29.6129 9.51933 29.8726C10.1273 30.1449 10.6688 30.4236 11.1438 30.7086C11.6252 30.9936 12.0337 31.3039 12.3693 31.6396C12.705 31.9752 12.9583 32.3584 13.1293 32.7891C13.3067 33.2134 13.3953 33.7042 13.3953 34.2616C13.3953 35.1039 13.1958 35.8386 12.7968 36.4656C12.4042 37.0926 11.8247 37.5802 11.0583 37.9286C10.292 38.2706 9.35466 38.4416 8.24633 38.4416ZM25.4344 41.5766C24.3894 41.5766 23.547 41.4689 22.9074 41.2536C22.2677 41.0382 21.7642 40.6836 21.3969 40.1896C21.0295 39.7019 20.7287 39.0432 20.4944 38.2136L22.1854 37.7766H23.1544C23.262 38.1502 23.414 38.4257 23.6104 38.6031C23.8067 38.7867 24.0822 38.9071 24.4369 38.9641C24.7915 39.0211 25.257 39.0496 25.8334 39.0496C26.0994 39.0496 26.3622 39.0211 26.6219 38.9641C26.8815 38.9071 27.1064 38.8469 27.2964 38.7836V41.1586C27.1254 41.2409 26.8847 41.3296 26.5744 41.4246C26.264 41.5259 25.884 41.5766 25.4344 41.5766ZM21.4444 38.4416C20.051 38.4669 18.8604 38.1851 17.8724 37.5961C16.8907 37.0007 16.1434 36.1552 15.6304 35.0596C15.1237 33.9576 14.883 32.6592 14.9084 31.1646C14.94 29.4926 15.2472 28.1404 15.8299 27.1081C16.4189 26.0694 17.22 25.3062 18.2334 24.8185C19.2467 24.3246 20.4057 24.0586 21.7104 24.0205C23.0467 23.9826 24.193 24.2549 25.1494 24.8376C26.1057 25.4139 26.834 26.2467 27.3344 27.3361C27.841 28.4254 28.0817 29.7142 28.0564 31.2026C28.0247 32.8746 27.727 34.2394 27.1634 35.2971C26.5997 36.3547 25.827 37.1369 24.8454 37.6436C23.8637 38.1502 22.73 38.4162 21.4444 38.4416ZM21.5014 35.8956C22.4134 35.8956 23.1322 35.5282 23.6579 34.7936C24.1835 34.0526 24.4464 32.8239 24.4464 31.1076C24.4464 30.2209 24.345 29.4419 24.1424 28.7705C23.9397 28.0992 23.6325 27.5767 23.2209 27.2031C22.8092 26.8294 22.2867 26.6426 21.6534 26.6426C21.077 26.6426 20.5514 26.785 20.0764 27.07C19.6014 27.3551 19.2214 27.8332 18.9364 28.5045C18.6577 29.1759 18.5184 30.0942 18.5184 31.2596C18.5184 32.1589 18.6292 32.9569 18.8509 33.6536C19.0725 34.3502 19.4019 34.8981 19.8389 35.2971C20.2822 35.6961 20.8364 35.8956 21.5014 35.8956ZM30.5112 38.2896V24.1726H34.0072V35.4396H38.7762V38.2896H30.5112Z" fill="#A0730C"/>
</svg>
