<?xml version="1.0" encoding="UTF-8" standalone="no"?>
<svg
   width="156"
   height="155.61583"
   viewBox="0 0 156 155.61583"
   fill="none"
   version="1.1"
   id="svg3"
   sodipodi:docname="webIcon.svg"
   xmlns:inkscape="http://www.inkscape.org/namespaces/inkscape"
   xmlns:sodipodi="http://sodipodi.sourceforge.net/DTD/sodipodi-0.dtd"
   xmlns="http://www.w3.org/2000/svg"
   xmlns:svg="http://www.w3.org/2000/svg">
  <sodipodi:namedview
     id="namedview3"
     pagecolor="#ffffff"
     bordercolor="#000000"
     borderopacity="0.25"
     inkscape:showpageshadow="2"
     inkscape:pageopacity="0.0"
     inkscape:pagecheckerboard="0"
     inkscape:deskcolor="#d1d1d1" />
  <g
     clip-path="url(#clip0_2249_560)"
     id="g3"
     transform="translate(0,-0.62019366)">
    <g
       style="mix-blend-mode:multiply"
       id="g1">
      <path
         d="m 20.5646,61.6912 c 0.0234,-0.0612 0.0585,-0.1225 0.082,-0.1959 9.9533,-23.77 27.3892,-37.6134 52.0031,-39.8289 27.9043,-2.4969 51.5353,13.2192 62.4363,40.0125 H 156 C 153.763,55.2774 151.468,48.778 148.213,42.9273 124.302,-0.0962361 70.6005,-12.4464 31.3376,15.828 15.5177,27.2234 5.04912,42.5845 -0.419357,61.6667 H 20.5646 Z"
         fill="#353535"
         id="path1"
         style="fill:#f6f6f6;fill-opacity:1" />
    </g>
    <g
       style="mix-blend-mode:multiply"
       id="g2">
      <path
         d="m 135.015,95.165 c -0.023,0.0612 -0.058,0.1224 -0.081,0.1959 C 124.98,119.131 107.544,132.974 82.9303,135.19 55.0259,137.687 31.3956,121.971 20.4938,95.1773 H -0.419922 C 1.81665,101.579 4.11176,108.078 7.36708,113.929 31.2785,156.952 84.9796,169.303 124.242,141.028 c 15.82,-11.395 26.289,-26.756 31.757,-45.8385 h -20.984 z"
         fill="#353535"
         id="path2"
         style="fill:#f6f6f6;fill-opacity:1" />
    </g>
  </g>
  <defs
     id="defs3">
    <clipPath
       id="clip0_2249_560">
      <rect
         width="156"
         height="156"
         fill="#ffffff"
         transform="translate(0,0.236084)"
         id="rect3"
         x="0"
         y="0" />
    </clipPath>
  </defs>
</svg>
