<svg width="202" height="73" viewBox="0 0 202 73" fill="none" xmlns="http://www.w3.org/2000/svg">
<path fill-rule="evenodd" clip-rule="evenodd" d="M13.4973 23.2979C14.5807 23.0361 15.6882 22.9043 16.7991 22.9049C25.5966 22.9049 32.7263 31.0529 32.7263 41.0999C32.7263 51.1499 25.5966 59.2979 16.7991 59.2979C8.00164 59.2979 0.869141 51.1529 0.869141 41.0999C0.869141 40.8059 0.874766 40.5089 0.888828 40.2149H0.869141C0.869141 25.0499 11.6691 12.7109 24.9441 12.7109V18.8189C20.6382 18.8189 16.667 20.4929 13.4973 23.2979ZM49.1429 23.2979C50.206 23.0399 51.3085 22.9049 52.4391 22.9049C61.2366 22.9049 68.3691 31.0529 68.3691 41.0999C68.3691 51.1499 61.2366 59.2979 52.4391 59.2979C43.6416 59.2979 36.512 51.1529 36.512 41.0999C36.512 40.8059 36.5176 40.5089 36.5316 40.2149H36.512C36.512 25.0499 47.312 12.7109 60.587 12.7109V18.8189C56.2782 18.8189 52.3126 20.4929 49.1429 23.2979Z" fill="#E8FE74"/>
<path d="M185.947 14.7109C185.93 14.755 185.905 14.7991 185.888 14.852C178.717 31.9777 166.154 41.9515 148.421 43.5477C128.316 45.3467 111.291 34.0236 103.437 14.7198H88.3691C89.9805 19.3319 91.6341 24.0145 93.9795 28.2298C111.207 59.2271 149.897 68.1251 178.185 47.7541C189.583 39.544 197.125 28.4767 201.065 14.7286H185.947V14.7109Z" fill="#162D4F"/>
</svg>
