<?xml version="1.0" encoding="UTF-8" standalone="no"?>
<svg
   width="200.19586"
   height="46.587002"
   viewBox="0 0 200.19586 46.587002"
   fill="none"
   version="1.1"
   id="svg2"
   sodipodi:docname="Frame 119.svg"
   xmlns:inkscape="http://www.inkscape.org/namespaces/inkscape"
   xmlns:sodipodi="http://sodipodi.sourceforge.net/DTD/sodipodi-0.dtd"
   xmlns="http://www.w3.org/2000/svg"
   xmlns:svg="http://www.w3.org/2000/svg">
  <defs
     id="defs2" />
  <sodipodi:namedview
     id="namedview2"
     pagecolor="#ffffff"
     bordercolor="#000000"
     borderopacity="0.25"
     inkscape:showpageshadow="2"
     inkscape:pageopacity="0.0"
     inkscape:pagecheckerboard="0"
     inkscape:deskcolor="#d1d1d1" />
  <path
     fill-rule="evenodd"
     clip-rule="evenodd"
     d="m 12.628159,10.587 c 1.0834,-0.2618 2.1909,-0.3936 3.3018,-0.393 8.7975,0 15.9272,8.148 15.9272,18.195 0,10.05 -7.1297,18.198 -15.9272,18.198 C 7.132499,46.587 1.7372127e-8,38.442 1.7372127e-8,28.389 1.7372127e-8,28.095 0.00562502,27.798 0.01968702,27.504 H 1.7372131e-8 C 1.7372131e-8,12.339 10.799959,-3.0670166e-7 24.074959,-3.0670166e-7 V 6.1079997 c -4.3059,0 -8.2771,1.674 -11.4468,4.4790003 z m 35.6456,0 c 1.0631,-0.258 2.1656,-0.393 3.2962,-0.393 8.7975,0 15.93,8.148 15.93,18.195 0,10.05 -7.1325,18.198 -15.93,18.198 -8.7975,0 -15.9271,-8.145 -15.9271,-18.198 0,-0.294 0.0056,-0.591 0.0196,-0.885 h -0.0196 c 0,-15.165 10.8,-27.50400030670166 24.075,-27.50400030670166 V 6.1079997 c -4.3088,0 -8.2744,1.674 -11.4441,4.4790003 z"
     fill="#e8fe74"
     id="path1" />
  <path
     d="m 185.07786,1.9999997 c -0.017,0.0441 -0.042,0.0882 -0.059,0.1411 -7.171,17.1257003 -19.734,27.0995003 -37.467,28.6957003 -20.105,1.799 -37.13,-9.5241 -44.984,-28.8279003 H 87.499959 c 1.6114,4.6121 3.265,9.2947003 5.6104,13.5100003 17.227501,30.9973 55.917501,39.8953 84.205501,19.5243 11.398,-8.2101 18.94,-19.2774 22.88,-33.0255003 h -15.118 z"
     fill="#162D4F"
     id="path2"
     style="fill:#353535;fill-opacity:1" />
</svg>
