<?xml version="1.0" encoding="UTF-8" standalone="no"?>
<svg
   width="156"
   height="157"
   viewBox="0 0 156 157"
   fill="none"
   version="1.1"
   id="svg1"
   sodipodi:docname="appIcon.svg"
   xmlns:inkscape="http://www.inkscape.org/namespaces/inkscape"
   xmlns:sodipodi="http://sodipodi.sourceforge.net/DTD/sodipodi-0.dtd"
   xmlns="http://www.w3.org/2000/svg"
   xmlns:svg="http://www.w3.org/2000/svg">
  <sodipodi:namedview
     id="namedview1"
     pagecolor="#ffffff"
     bordercolor="#000000"
     borderopacity="0.25"
     inkscape:showpageshadow="2"
     inkscape:pageopacity="0.0"
     inkscape:pagecheckerboard="0"
     inkscape:deskcolor="#d1d1d1" />
  <g
     clip-path="url(#clip0_2249_553)"
     id="g1">
    <path
       d="m 155.14,118.688 c -3.277,-1.873 -6.294,-4.11 -9.051,-6.658 l -0.104,-0.104 -0.052,-0.052 c -9.935,-9.259 -15.605,-21.7954 -16.073,-35.3717 -0.416,-13.5764 4.474,-26.4765 13.785,-36.3076 l 0.156,-0.2081 c 4.629,-4.9936 8.686,-10.4033 12.12,-16.2292 0.572,-0.9363 0.26,-2.1847 -0.677,-2.7569 l -9.467,-5.7738 c -0.936,-0.5722 -2.236,-0.2601 -2.757,0.6762 -2.86,4.8896 -6.294,9.467 -10.195,13.6804 -0.104,0.104 -0.156,0.156 -0.26,0.26 0,0 0,0 -0.052,0.0521 0,0 0,0 -0.052,0.052 C 121.85,41.235 108.325,49.1415 93.3966,52.6786 88.1949,53.927 82.7852,54.6553 77.3755,54.8113 71.0294,55.0194 65.3076,51.1702 62.8628,45.2923 62.4987,44.46 62.1346,43.5757 61.7705,42.7435 c -0.5202,-1.0924 0.4161,-2.3408 1.6125,-2.1327 4.4214,0.7802 8.9989,1.0923 13.6284,0.9883 17.6336,-0.5722 33.9666,-7.9585 45.9826,-20.8587 l 0.156,-0.156 c 3.277,-3.5371 6.138,-7.4384 8.583,-11.5477 0.572,-0.9363 0.26,-2.1847 -0.676,-2.75688 L 121.59,0.505974 c -0.989,-0.5721824 -2.237,-0.260083 -2.809,0.728236 -1.873,3.27704 -4.11,6.29401 -6.71,9.05089 l -0.156,0.156 C 102.656,20.3763 90.1196,26.0461 76.5432,26.5143 63.0189,26.8784 50.1188,21.9888 40.2356,12.6779 l -0.104,-0.1041 -0.052,-0.052 C 35.086,7.89233 29.6762,3.83504 23.8504,0.349925 22.9141,-0.222258 21.6657,0.0898414 21.0935,1.02614 l -5.7738,9.51906 c -0.5722,0.9363 -0.2601,2.2367 0.6762,2.7569 4.9416,2.9129 9.519,6.346 13.7324,10.2472 l 0.052,0.0521 0.052,0.052 c 11.3396,10.6114 19.2461,24.1877 22.8873,39.1685 1.2484,5.2016 1.9766,10.5594 2.1327,15.9691 0,0.052 0,0.104 0,0.156 0.2081,6.2941 -3.6932,12.0159 -9.5191,14.4086 -0.8322,0.3641 -1.7165,0.7283 -2.5488,1.0924 -1.0923,0.5201 -2.3407,-0.4161 -2.1326,-1.6125 0.7802,-4.4214 1.0923,-8.9989 0.9883,-13.6284 C 41.1199,61.6775 33.7856,45.3963 20.9375,33.3805 20.8334,33.2764 20.7294,33.1724 20.5733,33.0684 17.0362,29.8433 13.187,26.9824 9.07767,24.5897 8.14137,24.0175 6.89297,24.3296 6.32079,25.2659 l -5.721827,9.467 c -0.5721831,0.9883 -0.260083,2.2367 0.728237,2.8089 3.22503,1.8726 6.294,4.1093 9.0509,6.6581 l 0.2081,0.1561 c 9.9351,9.2589 15.6049,21.7949 16.0731,35.3713 0.4161,13.5763 -4.4734,26.4247 -13.7844,36.3077 l -0.2081,0.208 c -4.62946,4.994 -8.68676,10.403 -12.119854,16.229 -0.5721827,0.936 -0.260083,2.185 0.676214,2.757 l 9.46704,5.774 c 0.9363,0.572 2.1847,0.26 2.7569,-0.676 2.8609,-4.89 6.294,-9.467 10.1952,-13.681 0.1041,-0.104 0.1561,-0.156 0.2601,-0.26 0,0 0,0 0,-0.052 10.6114,-11.287 24.1357,-19.194 39.1165,-22.783 5.2017,-1.249 10.6114,-1.977 16.0211,-2.133 6.346,-0.208 12.0679,3.641 14.5126,9.519 0.3642,0.833 0.7283,1.717 1.0924,2.549 0.5202,1.092 -0.4161,2.341 -1.6125,2.133 -4.4214,-0.78 -8.9989,-1.093 -13.6284,-0.989 -17.6336,0.573 -33.9148,7.959 -45.9306,20.807 l -0.1561,0.156 -0.052,0.052 c -3.2771,3.537 -6.138,7.439 -8.5827,11.548 -0.5722,0.936 -0.2601,2.185 0.6762,2.757 l 9.467,5.774 c 0.9883,0.572 2.2367,0.26 2.8089,-0.729 1.8726,-3.277 4.1093,-6.294 6.6581,-9.051 l 0.104,-0.104 0.0521,-0.052 c 9.2589,-9.935 21.7949,-15.605 35.3713,-16.073 13.5763,-0.416 26.4767,4.474 36.3077,13.785 l 0.208,0.156 c 4.994,4.629 10.403,8.686 16.229,12.12 0.936,0.572 2.185,0.26 2.757,-0.677 l 5.774,-9.467 c 0.572,-0.936 0.26,-2.236 -0.676,-2.757 -4.942,-2.912 -9.519,-6.346 -13.733,-10.195 -0.052,-0.052 -0.104,-0.104 -0.156,-0.156 l -0.052,-0.052 c -11.339,-10.611 -19.194,-24.136 -22.783,-39.1164 -1.249,-5.2016 -1.977,-10.5593 -2.133,-15.9691 0,-0.052 0,-0.104 0,-0.156 -0.208,-6.294 3.693,-12.0159 9.519,-14.4086 0.833,-0.3641 1.717,-0.7283 2.549,-1.0924 1.092,-0.5201 2.341,0.4162 2.133,1.6125 -0.781,4.4215 -1.093,8.9989 -0.989,13.6284 0.573,17.5816 7.959,33.9146 20.807,45.9306 l 0.052,0.052 0.104,0.104 0.052,0.052 c 3.537,3.277 7.439,6.138 11.548,8.583 0.936,0.572 2.185,0.26 2.757,-0.676 l 5.774,-9.467 c 0.572,-1.041 0.26,-2.289 -0.729,-2.861 z M 78.6239,86.3334 c -0.1041,0 -0.2081,0 -0.3121,0 -4.4735,0.156 -8.1666,-3.3811 -8.2707,-7.8545 0,-0.052 0,-0.052 0,-0.1041 0,-0.052 0,-0.052 0,-0.104 -0.156,-4.4734 3.3811,-8.2186 7.8545,-8.3747 0.0521,0 0.0521,0 0.1041,0 0.052,0 0.052,0 0.104,0 4.4734,-0.156 8.2186,3.3811 8.3747,7.8545 0,0.0521 0,0.0521 0,0.1041 0,0.052 0,0.052 0,0.104 0.052,4.4734 -3.3811,8.2186 -7.8545,8.3747 z"
       fill="#353535"
       id="path1"
       style="fill:#f6f6f6;fill-opacity:1" />
  </g>
  <defs
     id="defs1">
    <clipPath
       id="clip0_2249_553">
      <rect
         width="155"
         height="156"
         fill="#ffffff"
         transform="translate(0.234375,0.0627441)"
         id="rect1"
         x="0"
         y="0" />
    </clipPath>
  </defs>
</svg>
