<svg width="156" height="157" viewBox="0 0 156 157" fill="none" xmlns="http://www.w3.org/2000/svg">
<g clip-path="url(#clip0_2249_560)">
<g style="mix-blend-mode:multiply">
<path d="M20.5646 61.6912C20.588 61.63 20.6231 61.5687 20.6466 61.4953C30.5999 37.7253 48.0358 23.8819 72.6497 21.6664C100.554 19.1695 124.185 34.8856 135.086 61.6789L156 61.6789C153.763 55.2774 151.468 48.778 148.213 42.9273C124.302 -0.0962361 70.6005 -12.4464 31.3376 15.828C15.5177 27.2234 5.04912 42.5845 -0.419357 61.6667L20.5646 61.6667L20.5646 61.6912Z" fill="#353535"/>
</g>
<g style="mix-blend-mode:multiply">
<path d="M135.015 95.165C134.992 95.2262 134.957 95.2874 134.934 95.3609C124.98 119.131 107.544 132.974 82.9303 135.19C55.0259 137.687 31.3956 121.971 20.4938 95.1773H-0.419922C1.81665 101.579 4.11176 108.078 7.36708 113.929C31.2785 156.952 84.9796 169.303 124.242 141.028C140.062 129.633 150.531 114.272 155.999 95.1895H135.015V95.165Z" fill="#353535"/>
</g>
</g>
<defs>
<clipPath id="clip0_2249_560">
<rect width="156" height="156" fill="white" transform="translate(0 0.236084)"/>
</clipPath>
</defs>
</svg>
