<svg width="552" height="125" viewBox="0 0 552 125" fill="none" xmlns="http://www.w3.org/2000/svg">
<g clip-path="url(#clip0_3020_195)">
<path d="M416.27 40.83C416.27 53.18 407.5 63.23 395.15 63.23H378.32V18.43H395.15C407.5 18.43 416.27 28.48 416.27 40.83ZM412.94 40.83C412.94 30.2 405.71 21.63 395.15 21.63H381.71V60.04H395.15C405.71 60.04 412.94 51.46 412.94 40.84V40.83Z" fill="#A0730C" stroke="#A0730C" stroke-miterlimit="10"/>
<path d="M468.87 40.83C468.87 41.55 468.78 42.28 468.78 43H427.86C428.94 53.21 436.71 59.89 447.01 59.89C454.42 59.89 460.02 56.46 462.64 51.67L466.61 54.02C462.91 60.16 455.86 64.23 446.92 64.23C433.01 64.23 423.16 54.29 423.16 40.65C423.16 27.01 432.74 17.07 446.56 17.07C460.38 17.07 468.87 28.45 468.87 40.83ZM427.86 38.57H464.17C463.18 27.55 455.41 21.41 446.56 21.41C436.26 21.41 428.76 28.55 427.86 38.57Z" fill="#A0730C"/>
<path d="M515.66 18.07L496.6 63.24H491.09L471.94 18.07H476.82L493.8 58.54L510.87 18.07H515.66Z" fill="#A0730C"/>
<path d="M551.71 51.4C551.71 58.81 545.21 64.23 535.54 64.23C526.51 64.23 520.54 59.98 518.38 54.2L522.26 51.94C523.89 56.82 528.76 59.89 535.54 59.89C541.86 59.89 547.19 57.09 547.19 51.4C547.19 39.11 519.82 46.16 519.82 29.9C519.82 22.76 525.96 17.07 535.18 17.07C542.5 17.07 548.1 20.59 550.54 26.1L546.75 28.27C544.85 23.57 540.16 21.4 535.19 21.4C529.32 21.4 524.35 24.47 524.35 29.89C524.35 42 551.72 34.86 551.72 51.39L551.71 51.4Z" fill="#A0730C"/>
<path d="M21.07 31.07V47.06C21.07 50.94 24.41 51.31 30.37 50.94V63.23C12.66 65.04 7.52001 59.71 7.52001 47.06V31.07H0.290009V18.06H7.52001V9.48L21.07 5.42V18.07H30.37V31.08H21.07V31.07Z" fill="#364049"/>
<path d="M34.98 40.65C34.98 27.19 45.64 16.8 58.92 16.8C72.2 16.8 82.86 27.19 82.86 40.65C82.86 54.11 72.2 64.5 58.92 64.5C45.64 64.5 34.98 54.11 34.98 40.65ZM69.3 40.65C69.3 34.24 64.78 29.99 58.91 29.99C53.04 29.99 48.52 34.24 48.52 40.65C48.52 47.06 53.04 51.31 58.91 51.31C64.78 51.31 69.3 47.06 69.3 40.65Z" fill="#364049"/>
<path d="M136.87 18.07V60.98C136.87 76.16 125.04 82.57 113.02 82.57C103.63 82.57 95.77 79.05 91.61 71.64L103.17 64.96C104.89 68.12 107.51 70.65 113.47 70.65C119.79 70.65 123.68 67.4 123.68 60.98V56.82C120.7 60.52 116.36 62.69 110.49 62.69C97.66 62.69 88.27 52.21 88.27 39.75C88.27 27.29 97.66 16.81 110.49 16.81C116.36 16.81 120.7 18.98 123.68 22.68V18.07H136.87ZM123.68 39.75C123.68 33.52 119.16 29.27 112.75 29.27C106.34 29.27 101.82 33.52 101.82 39.75C101.82 45.98 106.34 50.23 112.75 50.23C119.16 50.23 123.68 45.98 123.68 39.75Z" fill="#364049"/>
<path d="M169.75 52.39C173.45 52.39 176.62 50.94 178.42 48.96L189.26 55.19C184.83 61.33 178.15 64.49 169.57 64.49C154.12 64.49 144.55 54.1 144.55 40.64C144.55 27.18 154.31 16.79 168.58 16.79C181.77 16.79 191.52 27 191.52 40.64C191.52 42.54 191.34 44.34 190.98 46.06H158.91C160.63 50.76 164.78 52.38 169.75 52.38V52.39ZM178.06 35.95C176.61 30.71 172.55 28.81 168.48 28.81C163.33 28.81 159.9 31.34 158.63 35.95H178.05H178.06Z" fill="#364049"/>
<path d="M215.1 31.07V47.06C215.1 50.94 218.44 51.31 224.4 50.94V63.23C206.69 65.04 201.55 59.71 201.55 47.06V31.07H194.32V18.06H201.55V9.48L215.1 5.42V18.07H224.4V31.08H215.1V31.07Z" fill="#364049"/>
<path d="M275.53 35.5V63.23H261.98V37.49C261.98 31.89 258.46 29.27 254.12 29.27C249.15 29.27 245.72 32.16 245.72 38.57V63.23H232.17V0H245.72V22.31C248.16 18.97 252.68 16.8 258.64 16.8C267.76 16.8 275.53 23.3 275.53 35.5Z" fill="#364049"/>
<path d="M307.78 52.39C311.48 52.39 314.65 50.94 316.45 48.96L327.29 55.19C322.86 61.33 316.18 64.49 307.6 64.49C292.15 64.49 282.58 54.1 282.58 40.64C282.58 27.18 292.34 16.79 306.61 16.79C319.8 16.79 329.55 27 329.55 40.64C329.55 42.54 329.37 44.34 329.01 46.06H296.94C298.66 50.76 302.81 52.38 307.78 52.38V52.39ZM316.09 35.95C314.64 30.71 310.58 28.81 306.51 28.81C301.36 28.81 297.93 31.34 296.66 35.95H316.08H316.09Z" fill="#364049"/>
<path d="M364.33 17.16V32.52C358.73 31.62 350.78 33.88 350.78 42.82V63.24H337.23V18.07H350.78V26.11C352.59 20.06 358.64 17.17 364.33 17.17V17.16Z" fill="#364049"/>
<path d="M161.47 74.81C161.45 74.86 161.42 74.91 161.4 74.97C152.9 94.39 138.01 105.7 116.99 107.51C93.16 109.55 72.98 96.71 63.67 74.82H45.81C47.72 80.05 49.68 85.36 52.46 90.14C72.88 125.29 118.74 135.38 152.27 112.28C165.78 102.97 174.72 90.42 179.39 74.83H161.47V74.81Z" fill="#A0730C"/>
</g>
<defs>
<clipPath id="clip0_3020_195">
<rect width="551.42" height="124.69" fill="white" transform="translate(0.290009)"/>
</clipPath>
</defs>
</svg>
